<?xml version="1.0"?>
<!-- Converted with SVG Converter - Version 0.9.5 (Compiled Mon May 30 09:08:51 2011) - Copyright (C) 2011 Nokia -->
<svg xmlns="http://www.w3.org/2000/svg" width="96px" x="0px" version="1.1" y="0px" height="96px" viewBox="0 0 96 96" baseProfile="tiny" xmlns:xlink="http://www.w3.org/1999/xlink" id="svg3747">
 <metadata id="metadata3785"/>
 <defs id="defs3783">
  <linearGradient gradientTransform="matrix(1.61051,0,0,1.61051,-6.752188,-3.7141421)" id="SVGID_1_-7" y1="46.184601" x1="34" y2="10.8159" gradientUnits="userSpaceOnUse" x2="34">
   <stop offset="0" style="stop-color:#626262;stop-opacity:1" id="stop30365"/>
   <stop offset="0.5031" style="stop-color:#FAFCEF" id="stop30367"/>
   <stop offset="0.9693" style="stop-color:#e2e2e2;stop-opacity:1" id="stop30369"/>
   <stop offset="1" style="stop-color:#FFFFFF" id="stop30371"/>
  </linearGradient>
  <radialGradient cx="48.5" cy="39" id="SVGID_1_-6" r="46.504902" gradientUnits="userSpaceOnUse">
   <stop offset="0" style="stop-color:#A3DADF" id="stop58427"/>
   <stop offset="0.35" style="stop-color:#2AAAB5" id="stop58429"/>
   <stop offset="0.75" style="stop-color:#166973" id="stop58431"/>
   <stop offset="1" style="stop-color:#24939D" id="stop58433"/>
  </radialGradient>
  <radialGradient cx="47.840801" cy="34.124001" id="SVGID_2_-3" r="41.371498" gradientUnits="userSpaceOnUse">
   <stop offset="0" style="stop-color:#FFFFFF" id="stop58440"/>
   <stop offset="0.4121" style="stop-color:#BFBFBF" id="stop58442"/>
   <stop offset="0.8" style="stop-color:#828282" id="stop58444"/>
   <stop offset="1" style="stop-color:#5C5C5C" id="stop58446"/>
  </radialGradient>
  <linearGradient id="SVGID_3_" y1="24.0688" x1="48" y2="43.2136" gradientUnits="userSpaceOnUse" x2="48">
   <stop offset="0" style="stop-color:#FFFFFF;stop-opacity:0.3" id="stop58451"/>
   <stop offset="1" style="stop-color:#FFFFFF;stop-opacity:0" id="stop58453"/>
  </linearGradient>
  <linearGradient id="SVGID_4_-7" y1="40.123501" x1="34.879902" y2="54.950199" gradientUnits="userSpaceOnUse" x2="60.199299">
   <stop offset="0" style="stop-color:#FFFFFF" id="stop58458"/>
   <stop offset="1" style="stop-color:#FFFFFF;stop-opacity:0.2" id="stop58460"/>
  </linearGradient>
  <linearGradient id="SVGID_5_-3" y1="36.170898" x1="48.0005" y2="17.025999" gradientUnits="userSpaceOnUse" x2="48.0005">
   <stop offset="0" style="stop-color:#FFFFFF" id="stop58465"/>
   <stop offset="1" style="stop-color:#FFFFFF;stop-opacity:0.3" id="stop58467"/>
  </linearGradient>
  <linearGradient id="SVGID_6_-1" y1="51.736301" x1="48.0005" y2="23.870899" gradientUnits="userSpaceOnUse" x2="48.0005">
   <stop offset="0" style="stop-color:#FFFFFF" id="stop58472"/>
   <stop offset="1" style="stop-color:#FFFFFF;stop-opacity:0.1" id="stop58474"/>
  </linearGradient>
  <linearGradient id="SVGID_7_-9" y1="11.5781" x1="48.003899" y2="11.5781" gradientUnits="userSpaceOnUse" x2="48.003899">
   <stop offset="0" style="stop-color:#FFFFFF" id="stop58479"/>
   <stop offset="1" style="stop-color:#FFFFFF;stop-opacity:0.1" id="stop58481"/>
  </linearGradient>
  <linearGradient id="SVGID_8_-1" y1="39.626499" x1="61.234402" y2="55.3853" gradientUnits="userSpaceOnUse" x2="34.853001">
   <stop offset="0" style="stop-color:#FFFFFF" id="stop58486"/>
   <stop offset="1" style="stop-color:#FFFFFF;stop-opacity:0.2" id="stop58488"/>
  </linearGradient>
  <linearGradient id="SVGID_9_-1" y1="70.1035" x1="48.0005" y2="50.801102" gradientUnits="userSpaceOnUse" x2="48.0005">
   <stop offset="0" style="stop-color:#FFFFFF" id="stop58493"/>
   <stop offset="1" style="stop-color:#FFFFFF;stop-opacity:0.1" id="stop58495"/>
  </linearGradient>
  <linearGradient id="SVGID_10_-9" y1="11" x1="47.9995" y2="85.000504" gradientUnits="userSpaceOnUse" x2="47.9995">
   <stop offset="0" style="stop-color:#000000;stop-opacity:0.2" id="stop58512"/>
   <stop offset="1" style="stop-color:#000000" id="stop58514"/>
  </linearGradient>
  <linearGradient id="SVGID_11_" y1="84" x1="48.0005" y2="12.0005" gradientUnits="userSpaceOnUse" x2="48.0005">
   <stop offset="0" style="stop-color:#FFFFFF;stop-opacity:0.3" id="stop58519"/>
   <stop offset="1" style="stop-color:#FFFFFF;stop-opacity:0" id="stop58521"/>
  </linearGradient>
 </defs>
 <g id="g3749">
  <path stroke-opacity="0.4" fill-opacity="0.4" id="path3751" d="M88,49c0,29.635-10.361,40-40,40C18.367,89,8,78.635,8,49   C8,19.367,18.367,9,48,9C77.637,9,88,19.367,88,49z"/>
  <linearGradient gradientTransform="matrix(1 0 0 -1 -64.0742 -1067.8408)" id="SVGID_1_" y1="-1075.5039" x1="112.0742" y2="-1155.5039" gradientUnits="userSpaceOnUse" x2="112.0742">
   <stop offset="0" style="stop-color:#0077CD" id="stop3754"/>
   <stop offset="1" style="stop-color:#002364;stop-opacity:1;" id="stop3756"/>
  </linearGradient>
  <path fill="url(#SVGID_1_)" id="path3758" d="M88,48c0,29.635-10.361,40-40,40C18.367,88,8,77.635,8,48C8,18.367,18.367,8,48,8   C77.637,8,88,18.367,88,48z"/>
  <linearGradient gradientTransform="matrix(1 0 0 -1 -64.0742 -1067.8408)" id="SVGID_2_" y1="-1076.0938" x1="112.0742" y2="-1155.3384" gradientUnits="userSpaceOnUse" x2="112.0742">
   <stop offset="0" style="stop-color:#FFFFFF" id="stop3761"/>
   <stop offset="1" style="stop-color:#FFFFFF;stop-opacity:0" id="stop3763"/>
  </linearGradient>
  <path fill="url(#SVGID_2_)" fill-opacity="0.15" id="path3765" d="M48,8C18.367,8,8,18.367,8,48c0,29.635,10.367,40,40,40   c29.639,0,40-10.365,40-40C88,18.367,77.637,8,48,8z M48,87C18.842,87,9,77.158,9,48S18.842,9,48,9c29.16,0,39,9.842,39,39   S77.16,87,48,87z"/>
 </g>
 <rect width="96" fill="none" height="96" id="rect3779"/>
 <path style="fill-opacity:0.1;stroke-opacity:0.1" id="path58418" d="m 48.001458,75.905376 c -15.677874,0 -28.432458,-12.753855 -28.432458,-28.431 0,-15.677145 12.754584,-28.431 28.432458,-28.431 15.676416,0 28.429542,12.753855 28.429542,28.431 0,15.677145 -12.753126,28.431 -28.429542,28.431 l 0,0 z"/>
 <path style="fill-opacity:0.2;stroke-opacity:0.2" id="path58420" d="m 48.001458,75.176376 c -15.275466,0 -27.703458,-12.427263 -27.703458,-27.702 0,-15.274737 12.427992,-27.702 27.703458,-27.702 15.274008,0 27.700542,12.427263 27.700542,27.702 0,15.274737 -12.426534,27.702 -27.700542,27.702 l 0,0 z"/>
 <circle cx="48" cy="50" style="fill-opacity:0.4;stroke-opacity:0.4" r="37" id="circle58422" transform="matrix(0.729,0,0,0.729,13.008001,11.024376)"/>
 <g id="g58424" transform="matrix(0.729,0,0,0.729,13.008001,11.024376)">
  <radialGradient cx="48.5" cy="39" id="radialGradient58637" r="46.504902" gradientUnits="userSpaceOnUse">
   <stop offset="0" style="stop-color:#A3DADF" id="stop58639"/>
   <stop offset="0.35" style="stop-color:#2AAAB5" id="stop58641"/>
   <stop offset="0.75" style="stop-color:#166973" id="stop58643"/>
   <stop offset="1" style="stop-color:#24939D" id="stop58645"/>
  </radialGradient>
  <circle cx="48" cy="48" style="fill:url(#SVGID_1_-6)" r="37" id="circle58435"/>
  <path style="fill-opacity:0.4" id="path58437" d="m 18.212,69.947 0.52,0.688 1.633,-2.841 -0.98,-2.032 0.586,-1.339 2.224,-0.067 V 59.29 l 1.974,-2.24 v -3.768 l -8.25,-4.832 2.293,21.497 z m 19.205,-54.31 1.093,-0.11 0.907,0.504 h 2.416 l 0.254,-1.441 3.161,-1.013 H 51 l 5.484,-1.109 -3.578,-0.89 -15.219,1.213 -4.187,3.637 0.325,0.936 2.815,-0.936 0.777,-0.791 z m 5.84,-0.762 v 1.305 l 0.993,0.248 1.666,-0.49 v -1.261 l -2.659,0.198 z m -15.343,2.47 -3.5,2.522 -6.246,6.436 5.651,-2.992 v -1.357 l 1.445,-0.939 v 0.939 h 1.133 l 1.427,-1.605 0.334,-1.37 1.476,-1.101 v -1 l -1.72,0.467 z m 54.961,18.981 -6.597,-11.931 -7.973,-6.91 -11.39,-2.813 -4.66,2.134 v 1.212 l 1.556,1.67 -3.311,1.593 -1.667,-3.566 -1.468,0.941 1.002,2.351 -0.459,0.696 0.992,2.236 -4.438,0.323 v 2.526 l 1.7,0.758 3.97,-0.873 2.311,-1.758 h 3.517 l 2.215,2.854 1.384,-0.56 -2.123,-2.948 3.057,1.724 1.582,2.47 h 1.18 l -0.087,-1.459 h 0.656 l 1.454,1.639 4.905,1.572 -1.028,1.962 -32.514,3.144 v 6.992 l 6.257,6.653 8.729,-1.107 3.487,2.149 v 4.31 l 2.085,4.13 -1.866,2.091 v 3 l 1.905,2.376 v 5.041 l 2.592,2.166 h 4.449 l 1.654,-2.287 4.065,-3.032 V 65.34 l 4.081,-2.582 v -7.894 l 4.271,-2.713 1.817,-5.568 -0.925,-0.318 H 75.915 L 70.43,35.314 71.5,34.28 l 4.583,6.371 0.56,2.93 h 2.037 l 1.816,-2.93 v -2.414 l -1.779,-0.911 -2.079,-3.776 1.656,-0.116 1.972,3.157 1.784,0.14 1.048,2.096 0.602,0.416 -0.825,-2.917 z M 59.07,19.777 57.062,19.509 57.358,18.11 57.281,17.133 58.012,16.61 59.07,18.53 v 1.247 z m 11.362,7.073 -5.713,-0.746 v -1.061 l 0.688,-0.314 h 1.25 l 0.938,-0.938 h 0.938 v 1.043 l 1.9,0.916 v 1.1 z m 4.65,2.712 -2.527,-2.927 V 24.82 l 0.789,-0.373 v 1.194 l 2.539,3.278 -0.801,0.643 z M 75.125,63.197 73.33,68.1 h 1.001 l 2.564,-1.167 1.771,-4.042 v -2.282 l -3.541,2.588 z"/>
  <radialGradient cx="47.840801" cy="34.124001" id="radialGradient58649" r="41.371498" gradientUnits="userSpaceOnUse">
   <stop offset="0" style="stop-color:#FFFFFF" id="stop58651"/>
   <stop offset="0.4121" style="stop-color:#BFBFBF" id="stop58653"/>
   <stop offset="0.8" style="stop-color:#828282" id="stop58655"/>
   <stop offset="1" style="stop-color:#5C5C5C" id="stop58657"/>
  </radialGradient>
  <path style="fill:url(#SVGID_2_-3)" id="path58448" d="M 76.611,61.524 75.125,62.197 73.33,67.1 h 1.001 l 2.564,-1.167 1.771,-4.042 v -2.282 h -0.713 l -1.342,1.915 z m -11.517,-46.337 -2.21,0.521 -1.046,-0.613 -5.157,-0.846 -4.425,1.558 v 1.212 l 1.556,1.67 -2.193,1.076 -1.415,-0.271 -0.226,-2.714 -1.145,-0.064 -1.468,0.941 1.002,2.351 -0.459,0.696 0.992,2.236 -0.977,0.977 -1.87,-0.654 h -1.591 v 2.526 l 1.7,0.758 3.97,-0.873 2.311,-1.758 h 3.517 l 2.215,2.854 1.384,-0.56 -2.123,-2.948 3.057,1.724 1.582,2.47 h 1.18 l -0.087,-1.459 h 0.656 l 1.454,1.639 4.905,1.572 -1.028,1.962 -5.65,-1.847 -1.624,1.801 -5.107,-1.835 -0.855,-2.66 h -4.073 l -2.442,1.143 h -4.146 l -8.614,6.542 v 6.992 l 6.257,6.653 8.729,-1.107 3.484,2.148 v 4.31 l 2.085,4.13 -1.866,2.091 v 3 l 1.905,2.376 v 5.041 l 2.592,2.166 h 4.449 l 1.654,-2.287 4.065,-3.032 V 64.34 l 4.081,-2.582 v -7.894 l 4.271,-2.713 1.817,-5.568 -0.925,-0.318 H 75.915 L 70.43,34.314 71.5,33.28 l 4.583,6.371 0.56,2.93 h 2.037 l 1.816,-2.93 v -2.414 l -1.779,-0.911 -2.079,-3.776 1.656,-0.116 1.972,3.157 1.784,0.14 1.048,2.096 0.602,0.447 C 80.972,28.238 74.13,19.904 65.094,15.187 z m -6.024,3.59 -0.737,0.326 -1.271,-0.594 0.296,-1.399 -0.077,-0.977 0.731,-0.523 1.058,1.92 v 1.247 z m 11.362,7.073 h -1.338 l -1.38,-0.325 h -1.433 l -0.52,0.16 -1.043,-0.581 v -1.061 l 0.688,-0.314 h 1.25 l 0.938,-0.938 h 0.938 v 1.043 l 1.9,0.916 v 1.1 z m 5.451,2.712 H 75.082 L 74.501,27.956 74.08,26.823 72.555,25.635 V 23.82 l 0.789,-0.373 v 1.194 l 2.539,3.278 v 0.643 z M 15.917,43.865 13.809,43.019 V 40.508 L 12.027,39.354 C 11.361,42.128 11,45.021 11,48 c 0,8.287 2.727,15.938 7.33,22.107 l 2.034,-3.313 -0.98,-2.032 0.586,-1.339 2.224,-0.067 V 58.29 l 1.974,-2.24 v -3.768 l -8.25,-4.832 v -3.585 z m 3.3,-19.102 4.603,-2.452 v -1.357 l 1.445,-0.939 v 0.939 h 1.133 l 1.427,-1.605 0.334,-1.37 1.476,-1.101 v -0.99 c -4.003,2.293 -7.535,5.308 -10.418,8.875 z m 18.2,-10.126 1.093,-0.11 0.907,0.504 h 2.416 l 0.254,-1.441 3.161,-1.013 H 51 l 4.119,-0.886 C 52.815,11.242 50.438,11 48.002,11 c -4.037,0 -7.92,0.656 -11.559,1.852 l -2.943,2.576 0.325,0.936 2.815,-0.936 0.777,-0.791 z m 5.84,-0.19 v 0.733 l 0.993,0.248 1.666,-0.49 v -0.689 l -0.934,-0.332 -0.693,0.332 -1.032,0.198 z"/>
  <linearGradient id="linearGradient58660" y1="24.0688" x1="48" y2="43.2136" gradientUnits="userSpaceOnUse" x2="48">
   <stop offset="0" style="stop-color:#FFFFFF;stop-opacity:0.3" id="stop58662"/>
   <stop offset="1" style="stop-color:#FFFFFF;stop-opacity:0" id="stop58664"/>
  </linearGradient>
  <path style="fill:url(#SVGID_3_);fill-opacity:0.7" id="path58455" d="m 48,27.455 c 17.737,0 32.586,6.77 36.099,15.759 -0.13,-0.993 -0.295,-1.973 -0.506,-2.941 C 78.339,32.264 64.37,26.521 48,26.521 c -16.37,0 -30.339,5.744 -35.593,13.752 -0.211,0.968 -0.376,1.946 -0.506,2.941 C 15.414,34.225 30.263,27.455 48,27.455 z"/>
  <linearGradient id="linearGradient58667" y1="40.123501" x1="34.879902" y2="54.950199" gradientUnits="userSpaceOnUse" x2="60.199299">
   <stop offset="0" style="stop-color:#FFFFFF" id="stop58669"/>
   <stop offset="1" style="stop-color:#FFFFFF;stop-opacity:0.2" id="stop58671"/>
  </linearGradient>
  <path style="fill:url(#SVGID_4_-7);fill-opacity:0.6;stroke-opacity:0.6" id="path58462" d="m 33.827,78.702 c -1.249,0 -2.372,-0.282 -3.337,-0.841 -6.914,-3.991 -4.682,-20.843 4.972,-37.566 8.137,-14.091 19.121,-23.932 26.711,-23.932 0.411,0 0.804,0.042 1.188,0.103 l 0.27,-0.899 c -0.47,-0.082 -0.951,-0.139 -1.457,-0.139 -7.909,0 -19.225,10.034 -27.517,24.401 -9.913,17.168 -11.991,34.595 -4.634,38.843 1.108,0.64 2.388,0.965 3.805,0.965 6.028,0 14.034,-5.832 21.173,-14.965 V 63.154 C 47.867,72.611 39.797,78.702 33.827,78.702 z"/>
  <linearGradient id="linearGradient58674" y1="36.170898" x1="48.0005" y2="17.025999" gradientUnits="userSpaceOnUse" x2="48.0005">
   <stop offset="0" style="stop-color:#FFFFFF" id="stop58676"/>
   <stop offset="1" style="stop-color:#FFFFFF;stop-opacity:0.3" id="stop58678"/>
  </linearGradient>
  <path style="fill:url(#SVGID_5_-3);fill-opacity:0.6;stroke-opacity:0.6" id="path58469" d="m 48,36.326 c -9.526,0 -17.277,-4.398 -17.277,-9.806 0,-5.408 7.751,-9.806 17.277,-9.806 9.526,0 17.277,4.398 17.277,9.806 0,5.408 -7.751,9.806 -17.277,9.806 l 0,0 z m 0,-18.678 c -9.012,0 -16.343,3.98 -16.343,8.872 0,4.891 7.331,8.872 16.343,8.872 9.012,0 16.343,-3.981 16.343,-8.872 0,-4.891 -7.331,-8.872 -16.343,-8.872 l 0,0 z"/>
  <linearGradient id="linearGradient58681" y1="51.736301" x1="48.0005" y2="23.870899" gradientUnits="userSpaceOnUse" x2="48.0005">
   <stop offset="0" style="stop-color:#FFFFFF" id="stop58683"/>
   <stop offset="1" style="stop-color:#FFFFFF;stop-opacity:0.1" id="stop58685"/>
  </linearGradient>
  <path style="fill:url(#SVGID_6_-1);fill-opacity:0.6;stroke-opacity:0.6" id="path58476" d="m 78.352,31.189 c 0,-1.467 -0.233,-2.9 -0.668,-4.281 -0.739,-1.039 -1.532,-2.04 -2.373,-2.993 1.354,2.251 2.107,4.705 2.107,7.274 0,10.813 -13.198,19.612 -29.418,19.612 -16.22,0 -29.418,-8.8 -29.418,-19.612 0,-2.566 0.754,-5.019 2.105,-7.267 -0.842,0.953 -1.636,1.951 -2.371,2.988 -0.437,1.38 -0.668,2.811 -0.668,4.278 0,11.328 13.616,20.547 30.352,20.547 16.734,10e-4 30.352,-9.217 30.352,-20.546 z"/>
  <linearGradient id="linearGradient58688" y1="11.5781" x1="48.003899" y2="11.5781" gradientUnits="userSpaceOnUse" x2="48.003899">
   <stop offset="0" style="stop-color:#FFFFFF" id="stop58690"/>
   <stop offset="1" style="stop-color:#FFFFFF;stop-opacity:0.1" id="stop58692"/>
  </linearGradient>
  <polygon points="48.006,11.578 48.004,11.578 48.002,11.578 " style="fill:url(#SVGID_7_-9)" id="polygon58483"/>
  <linearGradient id="linearGradient58695" y1="39.626499" x1="61.234402" y2="55.3853" gradientUnits="userSpaceOnUse" x2="34.853001">
   <stop offset="0" style="stop-color:#FFFFFF" id="stop58697"/>
   <stop offset="1" style="stop-color:#FFFFFF;stop-opacity:0.2" id="stop58699"/>
  </linearGradient>
  <path style="fill:url(#SVGID_8_-1);fill-opacity:0.6;stroke-opacity:0.6" id="path58490" d="m 62.173,79.637 c -7.909,0 -19.225,-10.033 -27.517,-24.399 -9.913,-17.17 -11.991,-34.595 -4.634,-38.845 1.108,-0.639 2.388,-0.965 3.803,-0.965 7.911,0 19.227,10.034 27.519,24.401 4.771,8.261 7.902,16.818 8.816,24.094 0.933,7.414 -0.553,12.651 -4.183,14.749 -1.109,0.64 -2.387,0.965 -3.804,0.965 l 0,0 z M 33.825,16.363 c -1.247,0 -2.37,0.282 -3.335,0.839 -6.914,3.994 -4.682,20.845 4.972,37.569 8.137,14.09 19.121,23.931 26.711,23.931 1.249,0 2.372,-0.282 3.337,-0.841 3.285,-1.895 4.607,-6.803 3.726,-13.822 C 68.337,56.883 65.245,48.451 60.539,40.295 52.401,26.204 41.417,16.363 33.825,16.363 l 0,0 z"/>
  <linearGradient id="linearGradient58702" y1="70.1035" x1="48.0005" y2="50.801102" gradientUnits="userSpaceOnUse" x2="48.0005">
   <stop offset="0" style="stop-color:#FFFFFF" id="stop58704"/>
   <stop offset="1" style="stop-color:#FFFFFF;stop-opacity:0.1" id="stop58706"/>
  </linearGradient>
  <path style="fill:url(#SVGID_9_-1);fill-opacity:0.6;stroke-opacity:0.6" id="path58497" d="M 84.409,47.449 C 81.567,59.659 66.324,69.013 48,69.013 c -18.325,0 -33.567,-9.354 -36.409,-21.563 -0.002,0.184 -0.013,0.366 -0.013,0.551 0,0.934 0.047,1.857 0.115,2.775 4.589,11.063 19.124,19.171 36.307,19.171 17.183,0 31.718,-8.108 36.307,-19.172 0.068,-0.918 0.115,-1.842 0.115,-2.775 0,-0.185 -0.011,-0.367 -0.013,-0.551 z"/>
  <path style="fill:#ffffff;fill-opacity:0.3;stroke-opacity:0.3" id="path58499" d="m 64.811,52.98 c -2.748,0 -4.98,-2.234 -4.98,-4.98 0,-2.746 2.232,-4.981 4.98,-4.981 2.746,0 4.979,2.235 4.979,4.981 0,2.746 -2.233,4.98 -4.979,4.98 l 0,0 z"/>
  <path style="fill:#ffffff" id="path58501" d="m 64.811,50.736 c -1.509,0 -2.736,-1.228 -2.736,-2.736 0,-1.508 1.228,-2.736 2.736,-2.736 1.508,0 2.734,1.228 2.734,2.736 0,1.508 -1.227,2.736 -2.734,2.736 l 0,0 z"/>
  <path style="fill:#ffffff;fill-opacity:0.3;stroke-opacity:0.3" id="path58503" d="m 31.8,32.434 c -1.715,0 -3.097,-0.968 -3.366,-2.355 -0.323,-1.653 1.061,-3.346 3.084,-3.77 0.31,-0.066 0.624,-0.099 0.931,-0.099 1.715,0 3.097,0.969 3.364,2.356 0.327,1.651 -1.057,3.346 -3.082,3.769 -0.3,0.066 -0.617,0.099 -0.931,0.099 l 0,0 z"/>
  <path style="fill:#ffffff" id="path58505" d="m 31.8,31.189 c -1.089,0 -1.993,-0.565 -2.143,-1.349 -0.189,-0.973 0.778,-2.034 2.115,-2.313 0.229,-0.048 0.456,-0.072 0.676,-0.072 1.09,0 1.991,0.565 2.141,1.348 0.193,0.974 -0.776,2.034 -2.115,2.314 -0.23,0.05 -0.453,0.072 -0.674,0.072 l 0,0 z"/>
  <path style="fill:#ffffff;fill-opacity:0.3;stroke-opacity:0.3" id="path58507" d="m 26.931,68.039 c -0.731,0 -1.471,-0.193 -2.137,-0.56 -0.913,-0.501 -1.608,-1.28 -1.966,-2.192 -0.381,-0.978 -0.327,-2.033 0.148,-2.896 0.602,-1.093 1.773,-1.744 3.133,-1.744 0.731,0 1.472,0.193 2.137,0.561 0.912,0.501 1.608,1.28 1.966,2.191 0.383,0.979 0.329,2.035 -0.146,2.897 -0.6,1.093 -1.775,1.743 -3.135,1.743 l 0,0 z"/>
  <ellipse cx="26.52" cy="64.343002" rx="2.802" ry="2.336" style="fill:#ffffff" id="ellipse58509" transform="matrix(0.876,0.4823,-0.4823,0.876,34.324,-4.8121)"/>
  <linearGradient id="linearGradient58715" y1="11" x1="47.9995" y2="85.000504" gradientUnits="userSpaceOnUse" x2="47.9995">
   <stop offset="0" style="stop-color:#000000;stop-opacity:0.2" id="stop58717"/>
   <stop offset="1" style="stop-color:#000000" id="stop58719"/>
  </linearGradient>
  <path style="fill:url(#SVGID_10_-9);fill-opacity:0.4" id="path58516" d="M 48,12 C 67.851,12 84,28.149 84,48 84,67.851 67.851,84 48,84 28.149,84 12,67.851 12,48 12,28.149 28.149,12 48,12 m 0,-1 C 27.565,11 11,27.565 11,48 11,68.435 27.565,85 48,85 68.435,85 85,68.435 85,48 85,27.565 68.435,11 48,11 l 0,0 z"/>
  <linearGradient id="linearGradient58722" y1="84" x1="48.0005" y2="12.0005" gradientUnits="userSpaceOnUse" x2="48.0005">
   <stop offset="0" style="stop-color:#FFFFFF;stop-opacity:0.3" id="stop58724"/>
   <stop offset="1" style="stop-color:#FFFFFF;stop-opacity:0" id="stop58726"/>
  </linearGradient>
  <path style="fill:url(#SVGID_11_);fill-opacity:0.7" id="path58523" d="M 48.002,12 C 28.15,12 12,28.149 12,48 12,67.851 28.15,84 48.002,84 67.852,84 84,67.851 84,48 84,28.149 67.852,12 48.002,12 z m 0,71 C 28.702,83 13,67.299 13,48 13,28.701 28.702,13 48.002,13 67.3,13 83,28.701 83,48 83,67.299 67.3,83 48.002,83 z"/>
 </g>
 <path style="fill-opacity:0.15;stroke-opacity:0.15" id="path30354" d="m 20.222245,72.277771 c -4.668868,0 -8.371431,-2.734645 -9.429536,-6.968676 L 8.0226308,54.232007 c -1.1853345,-4.763889 1.415639,-9.402158 6.3228632,-11.280012 0.185209,-0.07248 0.38008,-0.106293 0.574953,-0.106293 0.25446,0 0.50731,0.0596 0.739223,0.178767 0.40907,0.212587 0.707014,0.586225 0.82136,1.032336 l 6.686837,26.120862 c 0.114345,0.446111 0.03221,0.919601 -0.227081,1.302903 -0.257682,0.38008 -0.666752,0.63454 -1.124137,0.69413 -0.541131,0.06925 -1.07421,0.10307 -1.594404,0.10307 l 0,0 z m 55.372554,-0.169103 c -0.610383,0 -1.235261,-0.04671 -1.856918,-0.143336 -0.449332,-0.06764 -0.848739,-0.323712 -1.099979,-0.703793 -0.251239,-0.38008 -0.330154,-0.847128 -0.217418,-1.288408 l 6.44204,-25.141671 0.310828,-1.148294 c 0.115954,-0.428396 0.404238,-0.78915 0.795593,-0.998516 0.235134,-0.12562 0.497646,-0.19004 0.75855,-0.19004 0.172324,0 0.347869,0.029 0.515363,0.08535 5.15041,1.740961 8.028392,6.770584 6.693279,11.700355 l -2.97139,11.028772 c -1.119305,4.132569 -4.79771,6.799574 -9.369948,6.799574 l 0,0 z m -49.73899,-1.127357 c -0.214199,0 -0.430007,-0.04188 -0.631321,-0.128841 -0.465438,-0.198092 -0.810086,-0.60233 -0.932485,-1.093536 L 18.020677,44.037478 c -0.0161,-0.06281 -0.02738,-0.12884 -0.03381,-0.193261 -0.05154,-0.442891 0.0048,-0.987242 0.115954,-1.650773 -0.01291,-0.124009 -0.0097,-0.251239 0.0097,-0.375249 0.08374,-0.523415 0.18521,-1.027505 0.289892,-1.533205 l 0.0048,-0.15783 c 0,-0.239966 0.05314,-0.470269 0.148167,-0.676414 3.486755,-16.884587 14.836018,-27.356122 29.692973,-27.356122 15.280519,0 26.705477,10.885436 29.887845,28.436774 0.128841,0.262514 0.188429,0.560458 0.151387,0.860013 0.08374,0.278618 0.08535,0.579783 0.01291,0.861622 L 71.33988,69.407842 c -0.12723,0.497648 -0.483153,0.903496 -0.958253,1.095147 -0.193261,0.07731 -0.397796,0.115954 -0.602331,0.115954 -0.296333,0 -0.587836,-0.08214 -0.845517,-0.239966 -3.965077,-2.449585 -5.828436,-6.590207 -4.749394,-10.550451 l 2.968169,-11.012667 c 0.0596,-0.212587 0.170715,-0.69574 0.289892,-1.19983 0.144946,-0.616825 0.296334,-1.259418 0.375249,-1.546089 0.468658,-1.76673 0.571731,-2.728204 0.610383,-4.243695 C 66.427816,29.655624 58.705421,22.103943 48.2516,22.103943 c -10.574608,0 -18.324382,7.659586 -20.240889,19.999313 -0.02093,1.381818 -0.0015,2.848992 0.360754,4.288788 0.07086,0.289892 0.207756,0.906717 0.338207,1.500995 0.115954,0.521806 0.227082,1.025895 0.277007,1.23043 l 2.766857,11.088361 c 0.996906,3.992454 -1.046832,8.232927 -5.087601,10.556894 -0.254461,0.140113 -0.531469,0.212587 -0.810087,0.212587 l 0,0 z"/>
 <path style="fill-opacity:0.3;stroke-opacity:0.3" id="path30356" d="M 9.5848258,55.451163 12.354904,66.52664 c 0.990464,3.960244 4.762278,6.248778 9.25399,5.659332 L 14.922057,46.065111 c -4.168,1.594405 -6.3083682,5.482175 -5.3372312,9.386052 z M 76.686725,43.206455 c 0,-0.138503 -0.01771,-0.267344 0,-0.401017 l -0.07408,-0.01771 C 73.902153,27.191544 63.860623,15.314032 48.246729,15.314032 c -15.264414,0 -25.188376,11.339602 -28.185535,26.422028 h -0.04348 c 0,0.09019 0,0.198092 -0.008,0.331765 -0.10791,0.533079 -0.21903,1.059715 -0.304387,1.6089 h 0.05798 c -0.119173,0.637761 -0.215809,1.252976 -0.175546,1.589572 l 6.107054,25.056315 0.164272,0.657088 c 3.282219,-1.887517 5.185842,-5.334009 4.327441,-8.769227 L 27.418071,51.114059 c -0.106304,-0.436448 -0.484764,-2.196735 -0.611994,-2.71854 -0.407459,-1.620174 -0.433228,-3.224242 -0.407459,-4.817036 1.868192,-12.262423 9.729091,-21.47454 21.84979,-21.47454 12.020846,0 19.846314,9.09294 21.7902,21.22169 -0.03704,1.694257 -0.138504,2.778129 -0.673194,4.788046 -0.144945,0.518584 -0.534689,2.27565 -0.660309,2.733036 l -2.969781,11.015888 c -0.921211,3.382071 0.856792,6.78991 4.04238,8.757954 l 6.960625,-27.15481 c -0.02577,-0.08053 -0.04188,-0.175545 -0.05153,-0.259292 z m 4.04077,2.509175 -0.304387,1.125746 -6.44204,25.141672 c 4.528754,0.692519 8.360158,-1.541259 9.429536,-5.483786 l 2.973002,-11.031994 c 1.098367,-4.052043 -1.177283,-8.237759 -5.656111,-9.751638 z"/>
 <path style="fill:url(#SVGID_1_-7)" id="path30358" d="M 9.5848258,53.840653 12.354904,64.91613 c 0.990464,3.960244 4.762278,6.248778 9.25399,5.659332 L 14.922057,44.454601 c -4.168,1.594405 -6.3083682,5.482175 -5.3372312,9.386052 z M 76.686725,41.595945 c 0,-0.138503 -0.01771,-0.267344 0,-0.401017 l -0.07408,-0.01771 C 73.902153,25.581034 63.860623,13.703522 48.246729,13.703522 c -15.264414,0 -25.188376,11.339602 -28.185535,26.422028 h -0.04348 c 0,0.09019 0,0.198092 -0.008,0.331765 -0.10791,0.533079 -0.21903,1.059715 -0.304387,1.6089 h 0.05798 c -0.119173,0.637761 -0.215809,1.252976 -0.175546,1.589572 l 6.107054,25.056315 0.164272,0.657088 c 3.282219,-1.887517 5.185842,-5.334009 4.327441,-8.769227 L 27.418071,49.503549 c -0.106304,-0.436448 -0.484764,-2.196735 -0.611994,-2.71854 -0.407459,-1.620174 -0.433228,-3.224242 -0.407459,-4.817036 1.868192,-12.262423 9.729091,-21.47454 21.84979,-21.47454 12.020846,0 19.846314,9.09294 21.7902,21.22169 -0.03704,1.694257 -0.138504,2.778129 -0.673194,4.788046 -0.144945,0.518584 -0.534689,2.27565 -0.660309,2.733036 l -2.969781,11.015888 c -0.921211,3.382071 0.856792,6.78991 4.04238,8.757954 l 6.960625,-27.15481 c -0.02577,-0.08053 -0.04188,-0.175545 -0.05153,-0.259292 z m 4.04077,2.509175 -0.304387,1.125746 -6.44204,25.141672 c 4.528754,0.692519 8.360158,-1.541259 9.429536,-5.483786 l 2.973002,-11.031994 c 1.098367,-4.052043 -1.177283,-8.237759 -5.656111,-9.751638 z"/>
 <path style="fill:#ffffff" id="path30360" d="m 9.4157228,52.727791 c 0.333375,-2.881203 2.3191352,-5.443524 5.5047242,-6.66268 l 6.280988,24.531288 c 0.135282,-0.01291 0.267344,-0.0032 0.405848,-0.02254 l -6.686836,-26.12087 c -3.768594,1.444627 -5.8542052,4.763889 -5.5047242,8.274801 z m 71.3117722,-8.622671 -0.304387,1.125746 -6.44204,25.141672 c 0.138504,0.02093 0.267344,0.0145 0.405849,0.0306 l 6.036191,-23.561762 0.304387,-1.125746 c 3.411059,1.153125 5.532101,3.858782 5.870308,6.873657 0.363976,-3.626869 -1.858528,-7.128118 -5.870308,-8.484167 z m -4.168,-1.565416 0.175545,-0.686078 c -0.02416,-0.07891 -0.03864,-0.173934 -0.04993,-0.257681 0,-0.138503 -0.01771,-0.267344 0,-0.401017 l -0.07409,-0.01771 C 73.900543,25.581034 63.859012,13.703522 48.245119,13.703522 c -15.264414,0 -25.188377,11.339602 -28.185536,26.422028 h -0.04348 c 0,0.09019 0,0.198092 -0.008,0.331765 -0.10791,0.533079 -0.21903,1.059715 -0.304386,1.6089 h 0.05798 c -0.119173,0.637761 -0.215809,1.252976 -0.175546,1.589572 l 0.10307,0.426786 c 0.02254,-0.132062 0.04671,-0.267345 0.07248,-0.405848 h -0.05798 c 0.08697,-0.549185 0.196482,-1.075821 0.304386,-1.6089 0.008,-0.133673 0.008,-0.241576 0.008,-0.331765 h 0.04348 C 23.056743,26.653634 32.980706,15.314032 48.24512,15.314032 c 15.530147,0 25.541078,11.753502 28.314376,27.225672 z"/>
</svg>
